REM DIRINDEX 1\2,1\3,1\4,1\5
REM DIRNAME folder01,folder02,folder03,folder04,folder05
TITLE ""
FILE "Round-15-372-373.mp3" MP3
  TRACK 01 AUDIO
    TITLE "0:"
    INDEX 01 00:00:00
  TRACK 02 AUDIO
    TITLE "2:cjc093_4097"
    INDEX 01 00:00:01
  TRACK 03 AUDIO
    TITLE "0:"
    INDEX 01 00:01:09
  TRACK 04 AUDIO
    TITLE "3:cjc093_4098"
    INDEX 01 00:01:26
  TRACK 05 AUDIO
    TITLE "0:"
    INDEX 01 00:02:34
  TRACK 06 AUDIO
    TITLE "4:cjc093_4099"
    INDEX 01 00:02:53
  TRACK 07 AUDIO
    TITLE "0:"
    INDEX 01 00:05:26
  TRACK 08 AUDIO
    TITLE "2:cjc093_4100"
    INDEX 01 00:06:39
  TRACK 09 AUDIO
    TITLE "0:"
    INDEX 01 00:07:45
  TRACK 10 AUDIO
    TITLE "3:cjc093_4101"
    INDEX 01 00:07:74
  TRACK 11 AUDIO
    TITLE "0:"
    INDEX 01 00:09:22
  TRACK 12 AUDIO
    TITLE "4:cjc093_4102"
    INDEX 01 00:09:36
  TRACK 13 AUDIO
    TITLE "0:"
    INDEX 01 00:12:18
  TRACK 14 AUDIO
    TITLE "2:cjc093_4103"
    INDEX 01 00:13:32
  TRACK 15 AUDIO
    TITLE "0:"
    INDEX 01 00:14:43
  TRACK 16 AUDIO
    TITLE "3:cjc093_4104"
    INDEX 01 00:14:60
  TRACK 17 AUDIO
    TITLE "0:"
    INDEX 01 00:15:64
  TRACK 18 AUDIO
    TITLE "4:cjc093_4105"
    INDEX 01 00:16:10
  TRACK 19 AUDIO
    TITLE "0:"
    INDEX 01 00:19:05
  TRACK 20 AUDIO
    TITLE "2:cjc093_4106"
    INDEX 01 00:20:18
  TRACK 21 AUDIO
    TITLE "0:"
    INDEX 01 00:21:17
  TRACK 22 AUDIO
    TITLE "2:cjc093_4107"
    INDEX 01 00:21:51
  TRACK 23 AUDIO
    TITLE "0:"
    INDEX 01 00:24:37
  TRACK 24 AUDIO
    TITLE "3:cjc093_4108"
    INDEX 01 00:25:05
  TRACK 25 AUDIO
    TITLE "0:"
    INDEX 01 00:26:24
  TRACK 26 AUDIO
    TITLE "4:cjc093_4109"
    INDEX 01 00:26:67
  TRACK 27 AUDIO
    TITLE "0:"
    INDEX 01 00:30:08
  TRACK 28 AUDIO
    TITLE "2:cjc093_4110"
    INDEX 01 00:31:22
  TRACK 29 AUDIO
    TITLE "0:"
    INDEX 01 00:32:37
  TRACK 30 AUDIO
    TITLE "3:cjc093_4111"
    INDEX 01 00:32:62
  TRACK 31 AUDIO
    TITLE "0:"
    INDEX 01 00:35:15
  TRACK 32 AUDIO
    TITLE "4:cjc093_4112"
    INDEX 01 00:35:35
  TRACK 33 AUDIO
    TITLE "0:"
    INDEX 01 00:38:33
  TRACK 34 AUDIO
    TITLE "2:cjc093_4113"
    INDEX 01 00:39:43
  TRACK 35 AUDIO
    TITLE "0:"
    INDEX 01 00:40:58
  TRACK 36 AUDIO
    TITLE "3:cjc093_4114"
    INDEX 01 00:41:24
  TRACK 37 AUDIO
    TITLE "0:"
    INDEX 01 00:43:39
  TRACK 38 AUDIO
    TITLE "4:cjc093_4115"
    INDEX 01 00:43:72
  TRACK 39 AUDIO
    TITLE "0:"
    INDEX 01 00:46:17
  TRACK 40 AUDIO
    TITLE "3:cjc093_4116"
    INDEX 01 00:47:27
  TRACK 41 AUDIO
    TITLE "0:"
    INDEX 01 00:49:08
  TRACK 42 AUDIO
    TITLE "4:cjc093_4117"
    INDEX 01 00:49:49
  TRACK 43 AUDIO
    TITLE "0:"
    INDEX 01 00:52:59
  TRACK 44 AUDIO
    TITLE "2:cjc093_4118"
    INDEX 01 00:53:70
  TRACK 45 AUDIO
    TITLE "0:"
    INDEX 01 00:55:10
  TRACK 46 AUDIO
    TITLE "3:cjc093_4119"
    INDEX 01 00:55:46
  TRACK 47 AUDIO
    TITLE "0:"
    INDEX 01 00:56:59
  TRACK 48 AUDIO
    TITLE "4:cjc093_4120"
    INDEX 01 00:57:27
  TRACK 49 AUDIO
    TITLE "0:"
    INDEX 01 01:02:16
  TRACK 50 AUDIO
    TITLE "2:cjc093_4121"
    INDEX 01 01:03:22
  TRACK 51 AUDIO
    TITLE "0:"
    INDEX 01 01:04:33
  TRACK 52 AUDIO
    TITLE "3:cjc093_4122"
    INDEX 01 01:04:62
  TRACK 53 AUDIO
    TITLE "0:"
    INDEX 01 01:06:18
  TRACK 54 AUDIO
    TITLE "4:cjc093_4123"
    INDEX 01 01:06:38
  TRACK 55 AUDIO
    TITLE "0:"
    INDEX 01 01:09:05
  TRACK 56 AUDIO
    TITLE "2:cjc093_4124"
    INDEX 01 01:10:20
  TRACK 57 AUDIO
    TITLE "0:"
    INDEX 01 01:11:25
  TRACK 58 AUDIO
    TITLE "2:cjc093_4125"
    INDEX 01 01:11:66
  TRACK 59 AUDIO
    TITLE "0:"
    INDEX 01 01:13:18
  TRACK 60 AUDIO
    TITLE "3:cjc093_4126"
    INDEX 01 01:13:51
  TRACK 61 AUDIO
    TITLE "0:"
    INDEX 01 01:15:01
  TRACK 62 AUDIO
    TITLE "4:cjc093_4127"
    INDEX 01 01:15:29
  TRACK 63 AUDIO
    TITLE "0:"
    INDEX 01 01:19:17
